<?xml version="1.0" encoding="UTF-8"?>
<svg width="24" height="24" viewBox="0 0 24 24" fill="none" xmlns="http://www.w3.org/2000/svg">
    <path d="M21.5287 15.9294C20.7574 15.6112 19.9272 15.4534 19.0913 15.4649C17.0439 15.4927 15.0927 16.3736 13.6679 17.9161C12.2432 19.4586 11.4823 21.4875 11.5101 23.5975C11.5141 23.8621 11.5318 24.1259 11.5632 24.388C10.1001 23.8346 8.75897 22.9883 7.61542 21.8992C6.4251 20.7582 5.45231 19.4223 4.74303 17.9571C4.03375 16.492 3.59727 14.9244 3.45394 13.3223C3.3106 11.7201 3.46288 10.1091 3.90364 8.5665C4.3444 7.02391 5.06599 5.57992 6.02874 4.30943C6.99149 3.03893 8.17553 1.96645 9.51757 1.14765C10.8596 0.328838 12.3336 -0.220963 13.8563 -0.476382C15.379 -0.731802 16.9236 -0.688572 18.4305 -0.348901C16.9117 1.11598 15.8966 3.00776 15.5341 5.07688C15.1715 7.14601 15.4806 9.27661 16.4188 11.1531C17.357 13.0297 18.8775 14.5539 20.7518 15.4989C20.9962 15.6164 21.2465 15.7215 21.5 15.8143L21.5287 15.9294Z" fill="currentColor"/>
</svg>